<svg id="레이어_1" data-name="레이어 1" xmlns="http://www.w3.org/2000/svg" viewBox="0 0 200 160"><defs><style>.cls-1,.cls-2,.cls-3,.cls-4{stroke:#000;stroke-miterlimit:10;}.cls-1{stroke-width:2.29px;}.cls-2{stroke-width:2.09px;}.cls-3{stroke-width:2.74px;}.cls-4{stroke-width:2.46px;}</style></defs><title>T VS T</title><circle class="cls-1" cx="64.69" cy="42.37" r="10.46"/><ellipse class="cls-2" cx="31.03" cy="48.34" rx="9.26" ry="8.92"/><path class="cls-3" d="M35.34,86.82l52.41-.1s-.6-25.15-12.16-33c0,0-8.83,9.66-21.92,0C53.67,53.71,38.88,57,35.34,86.82Z"/><path class="cls-4" d="M10,84l38.47-.08s.75-17.17-7.88-25.31a16.64,16.64,0,0,1-19.77-.13S10.66,60.62,10,84Z"/><circle class="cls-1" cx="136.31" cy="42.37" r="10.46"/><ellipse class="cls-2" cx="169.97" cy="48.34" rx="9.26" ry="8.92"/><path class="cls-3" d="M165.66,86.82l-52.41-.1s.6-25.15,12.16-33c0,0,8.83,9.66,21.92,0C147.33,53.71,162.12,57,165.66,86.82Z"/><path class="cls-4" d="M191,84l-38.47-.08s-.75-17.17,7.88-25.31a16.64,16.64,0,0,0,19.77-.13S190.34,60.62,191,84Z"/><path d="M82,123.37h.39q1.55-6.8,3.23-13.48T89,96.26h7.39L86.2,137.61H78.28L67.74,96.26h7.43Z"/><path d="M120,112a11.76,11.76,0,0,1,4.79,1,11.28,11.28,0,0,1,3.81,2.72,12.62,12.62,0,0,1,2.5,4.15,15.53,15.53,0,0,1,.07,10.2,11.89,11.89,0,0,1-2.33,4,11.06,11.06,0,0,1-3.6,2.65,10.81,10.81,0,0,1-4.62,1H101.8v-7.68h16.67a9.2,9.2,0,0,0,2.33-.29,5.38,5.38,0,0,0,1.92-.9,4.55,4.55,0,0,0,1.29-1.53,4.63,4.63,0,0,0,.49-2.19,4.57,4.57,0,0,0-1.56-3.69A5.82,5.82,0,0,0,119,120h-4.91a21.66,21.66,0,0,1-5.64-.68,11.29,11.29,0,0,1-4.3-2.14,9.57,9.57,0,0,1-2.75-3.77,14.16,14.16,0,0,1-1-5.51,12.64,12.64,0,0,1,.78-4.4,11.67,11.67,0,0,1,2.19-3.72,10.74,10.74,0,0,1,3.4-2.58,10,10,0,0,1,4.42-1h17.1v8.07H114.43a15.9,15.9,0,0,0-2.21.15,5.45,5.45,0,0,0-1.82.56,3,3,0,0,0-1.21,1.19,4.27,4.27,0,0,0-.44,2.09,3.57,3.57,0,0,0,1,2.6,3.76,3.76,0,0,0,2.82,1Z"/></svg>