<?xml version="1.0" encoding="utf-8"?>
<!-- Generator: Adobe Illustrator 21.1.0, SVG Export Plug-In . SVG Version: 6.00 Build 0)  -->
<svg version="1.1" id="Layer_1" xmlns="http://www.w3.org/2000/svg" xmlns:xlink="http://www.w3.org/1999/xlink" x="0px" y="0px"
	 viewBox="0 0 100 125" style="enable-background:new 0 0 100 125;" xml:space="preserve">
<style type="text/css">
	.st0{display:none;}
	.st1{display:inline;}
	.st2{display:none;opacity:0.31;}
</style>
<g class="st0">
	<rect x="-780.9" y="-757.2" class="st1" width="1370.9" height="1263.2"/>
</g>
<g class="st2">
	<g class="st1">
		<polygon points="38.5,14.1 62.5,14.1 62.5,39 74.2,39 82.1,44 82.1,5 38.5,5 		"/>
		<polygon points="15.6,56.5 23.6,51.4 59.2,51.4 59.2,17.5 15.6,17.5 		"/>
		<path d="M34.8,68.2c0-4.6-3.8-8.4-8.4-8.4S18,63.6,18,68.2s3.8,8.4,8.4,8.4C31.1,76.6,34.8,72.8,34.8,68.2z"/>
		<path d="M73.6,60.5c-4.6,0-8.4,3.8-8.4,8.4s3.8,8.4,8.4,8.4c4.6,0,8.4-3.8,8.4-8.4S78.2,60.5,73.6,60.5z"/>
		<path d="M9.8,95L9.8,95l3.8,0h25.6H43v0c0-7-5.7-12.6-12.6-12.6h-8C15.5,82.4,9.8,88,9.8,95z"/>
		<path d="M77.6,83.1h-8c-6.7,0-12.2,5.3-12.6,11.9h3.8h25.6h3.8C89.8,88.4,84.3,83.1,77.6,83.1z"/>
	</g>
</g>
<g>
	<g>
		<path d="M58.2,16.5c0-4.5-3.7-8.2-8.2-8.2c-4.5,0-8.2,3.7-8.2,8.2s3.7,8.2,8.2,8.2S58.2,21,58.2,16.5z"/>
		<path d="M34.9,38.3v1.4c0,1.2,1,2.2,2.2,2.2h25.7c1.2,0,2.2-1,2.2-2.2v-1.4c0-5.8-4.7-10.5-10.5-10.5h-9.2
			C39.6,27.8,34.9,32.5,34.9,38.3z"/>
		<path d="M20.4,74.5c4.5,0,8.2-3.7,8.2-8.2s-3.7-8.2-8.2-8.2c-4.5,0-8.2,3.7-8.2,8.2C12.3,70.8,15.9,74.5,20.4,74.5z"/>
		<path d="M35.5,89.5v-1.4c0-5.8-4.7-10.5-10.5-10.5h-9.1c-5.8,0-10.5,4.7-10.5,10.5v1.4c0,1.2,1,2.2,2.2,2.2h25.7
			C34.5,91.7,35.5,90.7,35.5,89.5z"/>
		<path d="M79.6,74.5c4.5,0,8.2-3.7,8.2-8.2s-3.7-8.2-8.2-8.2c-4.5,0-8.2,3.7-8.2,8.2C71.4,70.8,75,74.5,79.6,74.5z"/>
		<path d="M84.1,77.6H75c-5.8,0-10.5,4.7-10.5,10.5v1.4c0,1.2,1,2.2,2.2,2.2h25.7c1.2,0,2.2-1,2.2-2.2v-1.4
			C94.6,82.3,89.9,77.6,84.1,77.6z"/>
		<path d="M65.2,67.8l-0.7-0.4c-0.5-0.3-0.8-0.9-0.7-1.4c0.1-0.7,0.2-1.5,0.2-2.3c0-0.8-0.1-1.5-0.2-2.3c-0.1-0.6,0.2-1.1,0.7-1.4
			l0.7-0.4c0.7-0.4,1.2-1,1.4-1.8c0.2-0.8,0.1-1.6-0.3-2.3l-1.1-1.8c-0.8-1.4-2.6-1.9-4.1-1.1l-0.7,0.4c-0.5,0.3-1.2,0.2-1.6-0.1
			c-1.2-1-2.5-1.7-3.9-2.3C54.4,50.5,54,50,54,49.4v-0.8c0-1.6-1.3-3-3-3h-2.1c-1.6,0-3,1.3-3,3v0.8c0,0.6-0.4,1.1-0.9,1.3
			c-1.4,0.5-2.7,1.3-3.9,2.3c-0.4,0.4-1.1,0.4-1.6,0.1l-0.7-0.4c-1.4-0.8-3.2-0.3-4.1,1.1l-1.1,1.8c-0.4,0.7-0.5,1.5-0.3,2.3
			c0.2,0.8,0.7,1.4,1.4,1.8l0.7,0.4c0.5,0.3,0.8,0.9,0.7,1.4C36.1,62.2,36,63,36,63.7c0,0.8,0.1,1.5,0.2,2.3
			c0.1,0.6-0.2,1.1-0.7,1.4l-0.7,0.4c-0.7,0.4-1.2,1-1.4,1.8c-0.2,0.8-0.1,1.6,0.3,2.3l1.1,1.8c0.4,0.7,1,1.2,1.8,1.4
			c0.8,0.2,1.6,0.1,2.3-0.3l0.7-0.4c0.5-0.3,1.2-0.2,1.6,0.1c1.2,1,2.5,1.7,3.9,2.3c0.5,0.2,0.9,0.7,0.9,1.3v0.8c0,1.6,1.3,3,3,3
			h2.1c1.6,0,3-1.3,3-3v-0.8c0-0.6,0.4-1.1,0.9-1.3c1.4-0.5,2.7-1.3,3.9-2.3c0.4-0.4,1.1-0.4,1.6-0.1l0.7,0.4
			c0.7,0.4,1.5,0.5,2.3,0.3c0.8-0.2,1.4-0.7,1.8-1.4l1.1-1.8c0.4-0.7,0.5-1.5,0.3-2.3C66.3,68.9,65.8,68.2,65.2,67.8z M55.2,63.7
			c0,2.9-2.3,5.2-5.2,5.2s-5.2-2.3-5.2-5.2c0-2.9,2.3-5.2,5.2-5.2C52.9,58.5,55.2,60.8,55.2,63.7z"/>
	</g>
</g>
</svg>
